<?xml version="1.0" encoding="utf-8"?>
<!-- Generator: Adobe Illustrator 22.1.0, SVG Export Plug-In . SVG Version: 6.00 Build 0)  -->
<svg version="1.1" id="Layer_1" xmlns="http://www.w3.org/2000/svg" xmlns:xlink="http://www.w3.org/1999/xlink" x="0px" y="0px"
	 viewBox="0 0 712.7 121.3" style="enable-background:new 0 0 712.7 121.3;" xml:space="preserve">
<style type="text/css">
	.st0{fill:#FFFFFF;}
	.st1{fill:#FDE54C;}
	.st2{fill:#5BBF98;}
	.st3{fill:#F180A3;}
</style>
<polygon class="st0" points="84.7,60.7 75.6,98.1 8.8,85 8.8,60.6 75.6,60.6 "/>
<polygon class="st1" points="146.5,60.7 75.6,60.7 75.6,9.3 146.5,23.2 150.2,43.3 "/>
<polygon class="st2" points="146.5,112.1 75.6,98.1 75.6,60.6 146.5,60.6 "/>
<polygon class="st3" points="146.5,23.2 213.3,36.3 213.3,60.7 146.5,60.7 "/>
<polygon class="st0" points="576.2,87.8 586.7,87.8 586.7,65.5 603,33.5 591.5,33.5 581.5,55.4 571.4,33.5 559.9,33.5 576.2,65.5 
	"/>
<rect x="636.5" y="33.5" class="st0" width="10.6" height="54.3"/>
<rect x="606.8" y="76.5" class="st0" width="11.3" height="11.3"/>
<path class="st0" d="M680.5,88.3c6.2,0,10.8-2.1,14.4-5.7c5.4-5.4,5.5-11.5,5.5-21.9s-0.2-16.5-5.5-21.9c-3.6-3.7-8.2-5.7-14.4-5.7
	s-10.9,2.1-14.5,5.7c-5.4,5.4-5.5,11.5-5.5,21.9s0.1,16.5,5.5,21.9C669.7,86.2,674.3,88.3,680.5,88.3 M673.7,45.4
	c1.6-1.8,4-2.9,6.8-2.9c2.9,0,5.2,1.1,6.8,2.9c2,2.3,2.7,4.9,2.7,15.2c0,10.4-0.7,12.9-2.7,15.2c-1.5,1.8-3.9,3-6.8,3
	c-2.9,0-5.2-1.2-6.8-3c-2-2.3-2.6-4.8-2.6-15.2C671.1,50.3,671.7,47.7,673.7,45.4"/>
<path class="st0" d="M379.8,78.2H399l3.2,9.6h11l-19.8-54.3h-8.3l-19.7,54.3h11L379.8,78.2z M389.6,49.5l6.6,19.7h-13.5L389.6,49.5z
	"/>
<polygon class="st0" points="317.7,56.2 328.1,76.7 335.2,76.7 345.6,56.2 345.6,87.8 356.1,87.8 356.1,33.5 345.7,33.5 331.7,62.9 
	317.5,33.5 307.1,33.5 307.1,87.8 317.7,87.8 "/>
<polygon class="st0" points="556.2,78.3 531.6,78.3 531.6,33.5 521.1,33.5 521.1,87.8 556.2,87.8 "/>
<path class="st0" d="M271.1,64.7l6.5,1c2.7,0.4,3.8,0.8,4.9,1.8c1.1,1.1,1.7,2.7,1.7,4.5c0,4.3-3.3,6.8-9.7,6.8
	c-4.9,0-9.6-1.1-13-4.6l-6.8,6.9c5.3,5.4,11.6,7.2,19.8,7.2c11.4,0,20.1-5.9,20.1-16.5c0-4.9-1.3-8.8-4.2-11.4
	c-2.4-2.3-5.4-3.6-10.3-4.3l-6.5-1c-2.3-0.3-3.9-1.1-4.9-2.1c-1.1-1.1-1.5-2.4-1.5-3.9c0-3.7,2.7-6.9,8.3-6.9
	c3.6,0,7.8,0.5,11.1,3.7l6.7-6.6c-4.6-4.5-10-6.3-17.5-6.3c-11.7,0-18.9,6.8-18.9,16.5c0,4.6,1.3,8.2,3.9,10.7
	C263.1,62.6,266.3,64,271.1,64.7"/>
<path class="st0" d="M433.2,66.2h7.6l10.6,21.6h12.2l-12.1-23.4c5.2-1.9,9.9-6.6,9.9-14.3c0-9.1-6.5-16.6-17.6-16.6h-21.2v54.3h10.6
	V66.2z M433.2,43h10c4.6,0,7.7,3,7.7,7.2s-3,7.2-7.7,7.2h-10V43z"/>
<polygon class="st0" points="485.1,87.8 495.7,87.8 495.7,43 509.8,43 509.8,33.5 471,33.5 471,43 485.1,43 "/>
</svg>
